<?xml version="1.0" standalone="no"?><!DOCTYPE svg PUBLIC "-//W3C//DTD SVG 1.1//EN" "http://www.w3.org/Graphics/SVG/1.1/DTD/svg11.dtd"><svg t="1610451256107" class="icon" viewBox="0 0 1954 1024" version="1.1" xmlns="http://www.w3.org/2000/svg" p-id="2820" xmlns:xlink="http://www.w3.org/1999/xlink" width="381.640625" height="200"><defs><style type="text/css"></style></defs><path d="M294.167273 924.082424H143.049697a46.545455 46.545455 0 0 1-46.545455-46.545454V155.151515a46.545455 46.545455 0 0 1 46.545455-46.545454h151.117576A46.545455 46.545455 0 0 1 341.333333 155.151515v722.385455a46.545455 46.545455 0 0 1-47.16606 46.545454z m-135.602425-62.060606H279.272727V171.287273H158.564848z" p-id="2821"></path><path d="M108.606061 902.981818l-69.197576-53.372121a68.266667 68.266667 0 0 1-27.927273-55.854545V259.10303a67.956364 67.956364 0 0 1 22.962424-49.958788l71.990303-67.335757L148.635152 186.181818 76.024242 255.069091a6.206061 6.206061 0 0 0-2.482424 4.654545v534.341819a6.826667 6.826667 0 0 0 2.792727 5.895757l70.128485 53.992727z" p-id="2822"></path><path d="M1029.585455 875.364848H279.272727V155.151515h750.312728z m-688.252122-62.060606h626.191515V217.212121H341.333333z" p-id="2823"></path><path d="M322.094545 278.341818H989.866667v31.030303H322.094545z" p-id="2824"></path><path d="M322.094545 388.809697H989.866667v31.030303H322.094545z" p-id="2825"></path><path d="M322.094545 498.967273H989.866667v31.030303H322.094545z" p-id="2826"></path><path d="M322.094545 609.435152H989.866667v31.030303H322.094545z" p-id="2827"></path><path d="M322.715152 719.592727h667.772121v31.030303H322.715152z" p-id="2828"></path><path d="M1496.901818 947.044848H1038.273939a62.060606 62.060606 0 0 1-62.060606-62.060606v-744.727272a62.060606 62.060606 0 0 1 62.060606-62.060606h64.853334v62.060606h-64.853334v744.727272h458.627879v-744.727272h62.060606v744.727272a62.060606 62.060606 0 0 1-62.060606 62.060606z" p-id="2829"></path><path d="M1559.272727 183.389091H1076.130909V66.094545a62.060606 62.060606 0 0 1 62.060606-62.060606h359.020606a62.060606 62.060606 0 0 1 62.060606 62.060606z m-421.081212-62.060606h359.020606V66.094545H1138.191515z" p-id="2830"></path><path d="M1522.65697 952.32v-62.060606h114.501818V183.389091h-109.226667v-62.060606h124.121212a49.027879 49.027879 0 0 1 47.166061 51.2V902.981818a48.09697 48.09697 0 0 1-44.993939 49.338182z m114.501818-49.027879z m0-732.625454z" p-id="2831"></path><path d="M1572.615758 952.32h-505.79394l76.644849-290.133333a62.060606 62.060606 0 0 1 62.060606-47.166061h228.693333a62.060606 62.060606 0 0 1 62.060606 48.407273z m-425.115152-62.060606h344.436364l-56.785455-211.93697h-230.244848z" p-id="2832"></path><path d="M1666.947879 1024H976.213333a62.060606 62.060606 0 0 1-62.060606-62.060606v-41.890909h31.030303v-31.030303h783.825455V961.939394a62.060606 62.060606 0 0 1-62.060606 62.060606z m-690.734546-71.68V961.939394h690.734546v-9.619394z" p-id="2833"></path><path d="M1873.299394 499.277576h-230.555152v-207.903031h230.555152a62.060606 62.060606 0 0 1 62.060606 62.060607v83.781818a62.060606 62.060606 0 0 1-62.060606 62.060606z m-168.494546-62.060606h168.494546v-83.781818h-168.494546z" p-id="2834"></path></svg>